# xmcd CD database file
#
# Track frame offsets:
#	150
#	24505
#	42715
#	62527
#	79175
#	95922
#	114287
#	144867
#	172305
#
# Disc length: 2548 seconds
#
# Revision: 0
# Processed by: cddbd v1.5PL3 Copyright (c) Steve Scherf et al.
# Submitted via: CDex 1.50beta8
#
DISCID=7909f209
DTITLE=HIROKO - TAKE ME TONIGHT
DYEAR=1991
DGENRE=Dance
TTITLE0=AND YET
TTITLE1=PRIDE AND JOY
TTITLE2=BLUW ME A KISS
TTITLE3=LOVE IS YOU
TTITLE4=SO RIGHT
TTITLE5=FOOTLOOSE AND FANCY FREE
TTITLE6=TAKE ME TONIGHT
TTITLE7=LOVE ON THE ROCKS
TTITLE8=SOL NA CIENTE
EXTD=YEAR: 1991
EXTT0=
EXTT1=
EXTT2=
EXTT3=
EXTT4=
EXTT5=
EXTT6=
EXTT7=
EXTT8=
PLAYORDER=
